<svg width="26" height="25" viewBox="0 0 26 25" fill="none" xmlns="http://www.w3.org/2000/svg">
<path d="M16.8289 15.233H17.1098V15.1455C17.1098 14.7076 17.2315 14.2974 17.4453 13.9564C17.4411 13.9518 17.4369 13.9472 17.4327 13.9426C16.9756 13.4586 16.4347 13.1268 15.8644 12.8825L14.0905 12.3295C13.7383 12.1405 13.298 12.3479 13.1805 12.7719L11.2432 18.072L10.958 15.127C11.2599 15.0717 11.4948 14.7721 11.4948 14.4219V13.772C11.4948 13.3665 11.2096 13.0485 10.8364 13.0485H9.57418C9.20094 13.0485 8.89901 13.3665 8.89901 13.772V14.4219C8.89901 14.7721 9.15063 15.0717 9.45675 15.127L9.15063 18.0352L7.2468 12.7535C7.12937 12.3295 6.70583 12.1221 6.33679 12.3111L4.5336 12.8825C3.95908 13.1268 3.41814 13.4586 2.98201 13.9426C2.2901 14.68 1.833 15.6616 1.6988 16.7217L0.029805 23.4459C-0.104393 23.9482 0.231085 24.4276 0.704942 24.4276H2.88135C3.18329 24.4276 3.45165 24.2063 3.55649 23.8745L4.81873 19.2565C4.85229 19.0722 5.10388 19.0906 5.12067 19.275L5.30936 23.6855C5.32614 24.0957 5.64485 24.4276 6.01805 24.4276H14.3798C14.4386 24.4276 14.4973 24.4183 14.556 24.3999C14.5434 24.2985 14.5392 24.2017 14.5392 24.1003V17.754C14.5392 16.3622 15.5666 15.233 16.8289 15.233Z" fill="white"/>
<path d="M10.2028 11.2112C11.9226 11.2112 13.4063 9.6175 14.1313 7.59781C14.4518 6.74531 14.6203 5.80015 14.6203 4.8737C14.6203 1.77904 12.6476 0 10.2028 0C7.77478 0 5.78516 1.77904 5.78516 4.8737C5.78516 5.80015 5.97064 6.74531 6.29101 7.59781C7.01603 9.6175 8.49981 11.2112 10.2028 11.2112Z" fill="white"/>
<path d="M25.1798 16.8481H23.4285V15.1463C23.4285 14.8611 23.2191 14.631 22.9596 14.631H19.0471C18.7875 14.631 18.5781 14.8611 18.5781 15.1463V16.8481H16.8269C16.3733 16.8481 16.0068 17.2508 16.0068 17.7518V19.0796H25.9998V17.7518C25.9998 17.2508 25.6334 16.8481 25.1798 16.8481ZM22.4929 16.8481H19.5137V15.6592H22.4929V16.8481Z" fill="white"/>
<path d="M24.2202 20.7117C24.2202 20.9538 24.0436 21.148 23.8255 21.148H23.6837C23.4656 21.148 23.2889 20.9538 23.2889 20.7117V20.2467H18.7177V20.7117C18.7177 20.9538 18.5411 21.148 18.323 21.148H18.1812C17.9632 21.148 17.7865 20.9538 17.7865 20.7117V20.2467H16.0069L16.0068 24.0988C16.0068 24.5973 16.3733 25.0001 16.8269 25.0001H25.1798C25.6334 25.0001 25.9998 24.5973 25.9998 24.0988L25.9998 20.2467H24.2202V20.7117Z" fill="white"/>
</svg>
