<svg width="35" height="35" viewBox="0 0 35 35" fill="none" xmlns="http://www.w3.org/2000/svg">
<g clip-path="url(#clip0_1_166)">
<g clip-path="url(#clip1_1_166)">
<g clip-path="url(#clip2_1_166)">
<mask id="mask0_1_166" style="mask-type:luminance" maskUnits="userSpaceOnUse" x="0" y="0" width="35" height="35">
<path d="M34.8701 0.359985H0.870117V34.36H34.8701V0.359985Z" fill="white"/>
</mask>
<g mask="url(#mask0_1_166)">
<path d="M27.4878 27.7903C32.592 22.4638 32.412 14.0083 27.0856 8.90398C21.7593 3.79973 13.3036 3.97983 8.19935 9.30613C3.24815 14.4729 3.24815 22.6235 8.19935 27.7903L4.72876 32.4168C4.3264 32.9534 4.43512 33.7145 4.9716 34.1169C5.50809 34.5193 6.26928 34.4106 6.67165 33.874L10.0354 29.3884C14.6887 32.7788 20.9983 32.7788 25.6517 29.3884L29.0153 33.874C29.4177 34.4106 30.1789 34.5193 30.7154 34.1169C31.252 33.7145 31.3607 32.9534 30.9582 32.4168L27.4878 27.7903ZM19.058 18.5735C19.058 18.8363 18.9727 19.0919 18.8151 19.3021L15.1721 24.1595C14.7698 24.696 14.0086 24.8047 13.4721 24.4023C12.9356 23.9998 12.8268 23.2387 13.2292 22.7023L16.6293 18.1691V11.2875C16.6293 10.6168 17.173 10.0732 17.8438 10.0732C18.5144 10.0732 19.0581 10.6168 19.0581 11.2875L19.058 18.5735Z" fill="white"/>
<path d="M11.2075 2.13741C8.80668 -0.203633 4.96268 -0.155179 2.62156 2.24564C0.322347 4.60355 0.322062 8.36451 2.62099 10.7228C3.09522 11.1969 3.86388 11.1969 4.33804 10.7228L11.2075 3.85453C11.6816 3.3803 11.6816 2.61165 11.2075 2.13741Z" fill="white"/>
<path d="M33.0653 2.13771C30.6943 -0.232588 26.8509 -0.232588 24.4801 2.13771C24.006 2.61193 24.006 3.38059 24.4801 3.85475L31.3483 10.723C31.8225 11.1971 32.5912 11.1971 33.0653 10.723C35.4356 8.35207 35.4356 4.50871 33.0653 2.13771Z" fill="white"/>
</g>
</g>
</g>
</g>
<defs>
<clipPath id="clip0_1_166">
<rect width="34" height="34" fill="white" transform="translate(0.870117 0.359985)"/>
</clipPath>
<clipPath id="clip1_1_166">
<rect width="34" height="34" fill="white" transform="translate(0.870117 0.359985)"/>
</clipPath>
<clipPath id="clip2_1_166">
<rect width="34" height="34" fill="white" transform="translate(0.870117 0.359985)"/>
</clipPath>
</defs>
</svg>
