<svg width="82" height="82" viewBox="0 0 82 82" fill="none" xmlns="http://www.w3.org/2000/svg">
<g clip-path="url(#clip0_15_137)">
<g clip-path="url(#clip1_15_137)">
<g clip-path="url(#clip2_15_137)">
<path d="M82 41C82 18.3563 63.6437 0 41 0C18.3563 0 0 18.3563 0 41C0 63.6437 18.3563 82 41 82C63.6437 82 82 63.6437 82 41Z" fill="white"/>
<path fill-rule="evenodd" clip-rule="evenodd" d="M40.9997 72C58.1209 72 72 58.1209 72 40.9998C72 23.8792 58.1209 10 40.9997 10C23.8791 10 10 23.8792 10 40.9997C10 58.1209 23.8791 72 40.9997 72ZM38.5681 23.9285C36.7408 22.2955 33.9752 22.4993 32.3914 24.3836C30.8078 26.2679 31.0053 29.1192 32.8328 30.7521L44.0095 40.739L32.6822 51.8525C30.9298 53.5717 30.8614 56.4293 32.5283 58.2354C34.1955 60.0419 36.9669 60.1127 38.7187 58.3941L53.0021 44.3805C55.1625 42.2609 55.0817 38.6836 52.8282 36.67L38.5681 23.9285Z" fill="#791221"/>
</g>
</g>
</g>
<defs>
<clipPath id="clip0_15_137">
<rect width="82" height="82" fill="white" transform="matrix(0 -1 1 0 0 82)"/>
</clipPath>
<clipPath id="clip1_15_137">
<rect width="82" height="82" fill="white" transform="matrix(0 -1 1 0 0 82)"/>
</clipPath>
<clipPath id="clip2_15_137">
<rect width="82" height="82" fill="white" transform="matrix(0 -1 1 0 0 82)"/>
</clipPath>
</defs>
</svg>
