<svg width="82" height="82" viewBox="0 0 82 82" fill="none" xmlns="http://www.w3.org/2000/svg">
<g clip-path="url(#clip0_15_131)">
<g clip-path="url(#clip1_15_131)">
<path d="M0 41C0 63.6437 18.3563 82 41 82C63.6437 82 82 63.6437 82 41C82 18.3563 63.6437 0 41 0C18.3563 0 0 18.3563 0 41Z" fill="white" fill-opacity="0.2"/>
<path fill-rule="evenodd" clip-rule="evenodd" d="M41.0003 10C23.8791 10 10 23.8791 10 41.0002C10 58.1208 23.8791 72 41.0003 72C58.1209 72 72 58.1208 72 41.0003C72 23.8791 58.1209 10 41.0003 10ZM43.4319 58.0715C45.2592 59.7045 48.0248 59.5007 49.6086 57.6164C51.1922 55.7321 50.9947 52.8808 49.1672 51.2479L37.9905 41.261L49.3178 30.1475C51.0702 28.4283 51.1386 25.5707 49.4717 23.7646C47.8045 21.9581 45.0331 21.8873 43.2813 23.6059L28.9979 37.6195C26.8375 39.7391 26.9183 43.3164 29.1718 45.33L43.4319 58.0715Z" fill="#791221" fill-opacity="0.2"/>
</g>
</g>
<defs>
<clipPath id="clip0_15_131">
<rect width="82" height="82" fill="white" transform="matrix(0 1 -1 0 82 0)"/>
</clipPath>
<clipPath id="clip1_15_131">
<rect width="82" height="82" fill="white" transform="matrix(0 1 -1 0 82 0)"/>
</clipPath>
</defs>
</svg>
