<svg width="82" height="82" viewBox="0 0 82 82" fill="none" xmlns="http://www.w3.org/2000/svg">
<g clip-path="url(#clip0_8_41)">
<g clip-path="url(#clip1_8_41)">
<g clip-path="url(#clip2_8_41)">
<path d="M41 82C63.6437 82 82 63.6437 82 41C82 18.3563 63.6437 0 41 0C18.3563 0 0 18.3563 0 41C0 63.6437 18.3563 82 41 82Z" fill="white"/>
<path fill-rule="evenodd" clip-rule="evenodd" d="M7 40.4997C7 59.0016 21.9984 74 40.5002 74C59.0015 74 74 59.0016 74 40.4997C74 21.9984 59.0015 7 40.5003 7C21.9984 7 7 21.9984 7 40.4997ZM58.9482 37.872C60.7129 35.8973 60.4927 32.9087 58.4564 31.1972C56.4202 29.4858 53.3389 29.6993 51.5743 31.6741L40.7821 43.7522L28.7723 31.5114C26.9145 29.6177 23.8264 29.5438 21.8747 31.3451C19.9225 33.1468 19.846 36.1416 21.7032 38.0347L36.8469 53.47C39.1374 55.8046 43.0032 55.7173 45.1792 53.2821L58.9482 37.872Z" fill="#791221"/>
</g>
</g>
</g>
<defs>
<clipPath id="clip0_8_41">
<rect width="82" height="82" fill="white"/>
</clipPath>
<clipPath id="clip1_8_41">
<rect width="82" height="82" fill="white"/>
</clipPath>
<clipPath id="clip2_8_41">
<rect width="82" height="82" fill="white"/>
</clipPath>
</defs>
</svg>
