<svg width="25" height="25" viewBox="0 0 25 25" fill="none" xmlns="http://www.w3.org/2000/svg">
<path d="M5.81506 4.68618C5.81506 5.59561 5.00731 6.33287 4.01101 6.33287C3.01471 6.33287 2.20703 5.59561 2.20703 4.68618C2.20703 3.77675 3.01471 3.03943 4.01101 3.03943C5.00731 3.03943 5.81506 3.77675 5.81506 4.68618Z" fill="white"/>
<path opacity="0.12" d="M4.01101 3.03943V6.33287C3.01471 6.33287 2.20703 5.59561 2.20703 4.68618C2.20703 3.77675 3.01471 3.03943 4.01101 3.03943Z" fill="white"/>
<path d="M8.02223 8.32154V13.5153C8.02223 13.8327 7.74522 14.0966 7.39764 14.1008C7.04548 14.105 6.75591 13.8433 6.75591 13.5229V8.93527C6.75591 8.77566 6.61415 8.64633 6.43929 8.64633C6.26444 8.64633 6.12276 8.77566 6.12276 8.93527V21.1413C6.12276 21.5938 5.72088 21.9605 5.22525 21.9605C4.97742 21.9605 4.75294 21.8688 4.59056 21.7206C4.42819 21.5724 4.32773 21.3676 4.32773 21.1413V15.1094C4.32773 14.9498 4.18596 14.8204 4.01111 14.8204C3.92364 14.8204 3.84458 14.8527 3.78722 14.905C3.72995 14.9574 3.69449 15.0296 3.69449 15.1094V21.1413C3.69449 21.5938 3.2927 21.9605 2.79698 21.9605H2.79689C2.30126 21.9605 1.89938 21.5938 1.89938 21.1413V8.93527C1.89938 8.77566 1.7577 8.64633 1.58285 8.64633C1.40799 8.64633 1.26631 8.77566 1.26631 8.93527V13.5229C1.26631 13.8433 0.976834 14.105 0.624669 14.1008C0.276988 14.0966 0 13.8327 0 13.5153V8.32154C0 7.16564 0.633156 6.58777 1.89938 6.58777H6.12279C7.38907 6.58776 8.02223 7.16563 8.02223 8.32154Z" fill="white"/>
<path opacity="0.12" d="M4.01111 6.58777V14.8204C3.92364 14.8204 3.84458 14.8527 3.78722 14.905C3.72995 14.9574 3.69449 15.0296 3.69449 15.1094V21.1413C3.69449 21.5938 3.2927 21.9605 2.79698 21.9605H2.7969C2.30126 21.9605 1.89938 21.5938 1.89938 21.1413V8.93528C1.89938 8.77568 1.7577 8.64635 1.58285 8.64635C1.40799 8.64635 1.26631 8.77568 1.26631 8.93528V13.5229C1.26631 13.8433 0.976834 14.105 0.624669 14.1008C0.276988 14.0967 0 13.8327 0 13.5153V8.32156C0 7.16565 0.633156 6.58778 1.89938 6.58778L4.01111 6.58777Z" fill="white"/>
<path d="M22.7936 4.68618C22.7936 5.59561 21.9858 6.33287 20.9895 6.33287C19.9932 6.33287 19.1855 5.59561 19.1855 4.68618C19.1855 3.77675 19.9932 3.03943 20.9895 3.03943C21.9858 3.03943 22.7936 3.77675 22.7936 4.68618Z" fill="white"/>
<path opacity="0.12" d="M20.9895 3.03943V6.33287C19.9932 6.33287 19.1855 5.59561 19.1855 4.68618C19.1855 3.77675 19.9932 3.03943 20.9895 3.03943Z" fill="white"/>
<path d="M24.9998 8.32154V13.5153C24.9998 13.8327 24.7228 14.0966 24.3752 14.1008C24.023 14.105 23.7335 13.8433 23.7335 13.5229V8.93527C23.7335 8.77566 23.5917 8.64633 23.4168 8.64633C23.242 8.64633 23.1003 8.77566 23.1003 8.93527V21.1413C23.1003 21.5938 22.6984 21.9605 22.2028 21.9605C21.955 21.9605 21.7305 21.8688 21.5681 21.7206C21.4057 21.5724 21.3053 21.3676 21.3053 21.1413V15.1094C21.3053 14.9498 21.1635 14.8204 20.9887 14.8204C20.9012 14.8204 20.8221 14.8527 20.7648 14.905C20.7075 14.9574 20.672 15.0296 20.672 15.1094V21.1413C20.672 21.5938 20.2702 21.9605 19.7745 21.9605H19.7744C19.2788 21.9605 18.8769 21.5938 18.8769 21.1413V8.93527C18.8769 8.77566 18.7352 8.64633 18.5604 8.64633C18.3855 8.64633 18.2439 8.77566 18.2439 8.93527V13.5229C18.2439 13.8433 17.9544 14.105 17.6022 14.1008C17.2545 14.0966 16.9775 13.8327 16.9775 13.5153V8.32154C16.9775 7.16564 17.6107 6.58777 18.8769 6.58777H23.1003C24.3666 6.58776 24.9998 7.16563 24.9998 8.32154Z" fill="white"/>
<path opacity="0.12" d="M20.9887 6.58777V14.8204C20.9012 14.8204 20.8221 14.8527 20.7648 14.905C20.7075 14.9574 20.672 15.0296 20.672 15.1094V21.1413C20.672 21.5938 20.2702 21.9605 19.7745 21.9605H19.7744C19.2788 21.9605 18.8769 21.5938 18.8769 21.1413V8.93528C18.8769 8.77568 18.7352 8.64635 18.5604 8.64635C18.3855 8.64635 18.2438 8.77568 18.2438 8.93528V13.5229C18.2438 13.8433 17.9544 14.105 17.6022 14.1008C17.2545 14.0967 16.9775 13.8327 16.9775 13.5153V8.32156C16.9775 7.16565 17.6107 6.58778 18.8769 6.58778L20.9887 6.58777Z" fill="white"/>
<path d="M14.8834 2.17581C14.8834 3.37742 13.8161 4.35153 12.4998 4.35153C11.1834 4.35153 10.1162 3.37742 10.1162 2.17581C10.1162 0.974204 11.1834 0 12.4998 0C13.8161 0 14.8834 0.974204 14.8834 2.17581Z" fill="white"/>
<path opacity="0.06" d="M12.4998 0V4.35153C11.1834 4.35153 10.1162 3.37742 10.1162 2.17581C10.1162 0.974204 11.1834 0 12.4998 0Z" fill="#FDFFFF"/>
<path d="M17.7998 6.97915V13.8415C17.7998 14.2609 17.4338 14.6095 16.9745 14.6151C16.5092 14.6207 16.1266 14.2749 16.1266 13.8515V7.79005C16.1266 7.57917 15.9393 7.40829 15.7083 7.40829C15.4772 7.40829 15.29 7.57917 15.29 7.79005V23.9175C15.29 24.5154 14.759 25 14.1042 25C13.7768 25 13.4802 24.8788 13.2656 24.683C13.051 24.4871 12.9183 24.2165 12.9183 23.9175V15.9477C12.9183 15.7368 12.731 15.5659 12.5 15.5659C12.3844 15.5659 12.2799 15.6086 12.2042 15.6777C12.1285 15.7468 12.0816 15.8423 12.0816 15.9477V23.9175C12.0816 24.5154 11.5507 25 10.8958 25H10.8957C10.2408 25 9.7098 24.5154 9.7098 23.9175V7.79005C9.7098 7.57917 9.5226 7.40829 9.29157 7.40829C9.06054 7.40829 8.87334 7.57917 8.87334 7.79005V13.8515C8.87334 14.2749 8.49086 14.6207 8.02556 14.6151C7.56619 14.6096 7.2002 14.2609 7.2002 13.8415V6.97915C7.2002 5.45189 8.03676 4.68835 9.7098 4.68835H15.2901C16.9632 4.68837 17.7998 5.45189 17.7998 6.97915Z" fill="white"/>
<path opacity="0.06" d="M12.5 4.68837V15.566C12.3844 15.566 12.2799 15.6086 12.2042 15.6777C12.1285 15.7469 12.0816 15.8423 12.0816 15.9477V23.9175C12.0816 24.5154 11.5507 25 10.8958 25H10.8957C10.2408 25 9.7098 24.5154 9.7098 23.9175V7.79005C9.7098 7.57917 9.5226 7.40829 9.29157 7.40829C9.06054 7.40829 8.87334 7.57917 8.87334 7.79005V13.8515C8.87334 14.2749 8.49086 14.6207 8.02556 14.6151C7.56619 14.6096 7.2002 14.2609 7.2002 13.8415V6.97915C7.2002 5.45189 8.03676 4.68835 9.7098 4.68835L12.5 4.68837Z" fill="#FDFFFF"/>
</svg>
