<svg width="40" height="40" viewBox="0 0 40 40" fill="none" xmlns="http://www.w3.org/2000/svg">
<g clip-path="url(#clip0_22_417)">
<rect y="40" width="40" height="40" rx="20" transform="rotate(-90 0 40)" fill="white"/>
<path fill-rule="evenodd" clip-rule="evenodd" d="M19.9999 35C28.2843 35 35 28.2843 35 19.9999C35 11.7157 28.2843 5 19.9999 5C11.7157 5 5 11.7157 5 19.9999C5 28.2843 11.7157 35 19.9999 35ZM18.8233 11.7396C17.9391 10.9494 16.6009 11.048 15.8346 11.9598C15.0683 12.8716 15.1639 14.2512 16.0481 15.0414L21.4562 19.8737L15.9753 25.2512C15.1273 26.0831 15.0942 27.4658 15.9008 28.3397C16.7075 29.2138 18.0485 29.2481 18.8961 28.4165L25.8075 21.6357C26.8528 20.6101 26.8137 18.8792 25.7233 17.9048L18.8233 11.7396Z" fill="#791221"/>
</g>
<defs>
<clipPath id="clip0_22_417">
<rect width="40" height="40" fill="white"/>
</clipPath>
</defs>
</svg>
