<svg width="36" height="36" viewBox="0 0 36 36" fill="none" xmlns="http://www.w3.org/2000/svg">
<path d="M18.0106 3.24204C22.8227 3.24204 23.3926 3.26314 25.2851 3.34753C27.044 3.42489 27.9937 3.72026 28.6269 3.9664C29.4641 4.2899 30.0692 4.68373 30.6953 5.30963C31.3285 5.94257 31.7155 6.54034 32.0391 7.37722C32.2853 8.01016 32.5808 8.96659 32.6582 10.7177C32.7426 12.6165 32.7637 13.1862 32.7637 17.9895C32.7637 22.7998 32.7426 23.3694 32.6582 25.2612C32.5808 27.0193 32.2853 27.9687 32.0391 28.6017C31.7155 29.4386 31.3215 30.0434 30.6953 30.6693C30.0621 31.3022 29.4641 31.689 28.6269 32.0125C27.9937 32.2586 27.0369 32.554 25.2851 32.6314C23.3856 32.7158 22.8157 32.7369 18.0106 32.7369C13.1984 32.7369 12.6285 32.7158 10.736 32.6314C8.97714 32.554 8.02736 32.2586 7.39418 32.0125C6.55697 31.689 5.95192 31.2952 5.32578 30.6693C4.69259 30.0363 4.30565 29.4386 3.98202 28.6017C3.73578 27.9687 3.4403 27.0123 3.36291 25.2612C3.27848 23.3624 3.25738 22.7927 3.25738 17.9895C3.25738 13.1791 3.27848 12.6095 3.36291 10.7177C3.4403 8.95956 3.73578 8.01016 3.98202 7.37722C4.30565 6.54034 4.69963 5.93553 5.32578 5.30963C5.95896 4.67669 6.55697 4.2899 7.39418 3.9664C8.02736 3.72026 8.98417 3.42489 10.736 3.34753C12.6285 3.26314 13.1984 3.24204 18.0106 3.24204ZM18.0106 0C13.121 0 12.5089 0.0210979 10.5882 0.105489C8.67461 0.189881 7.359 0.499316 6.21927 0.942371C5.03029 1.40652 4.02423 2.01836 3.02521 3.02403C2.01915 4.02266 1.40707 5.02833 0.94274 6.20981C0.499511 7.35612 0.189955 8.66419 0.105531 10.5771C0.0211061 12.504 0 13.1158 0 18.0035C0 22.8912 0.0211061 23.503 0.105531 25.4229C0.189955 27.3358 0.499511 28.6509 0.94274 29.7902C1.40707 30.9787 2.01915 31.9844 3.02521 32.983C4.02423 33.9816 5.03029 34.6005 6.21223 35.0576C7.359 35.5007 8.66758 35.8101 10.5812 35.8945C12.5019 35.9789 13.1139 36 18.0035 36C22.8931 36 23.5052 35.9789 25.4258 35.8945C27.3395 35.8101 28.6551 35.5007 29.7948 35.0576C30.9767 34.6005 31.9828 33.9816 32.9818 32.983C33.9808 31.9844 34.6 30.9787 35.0573 29.7972C35.5005 28.6509 35.81 27.3428 35.8945 25.43C35.9789 23.5101 36 22.8982 36 18.0105C36 13.1229 35.9789 12.511 35.8945 10.5911C35.81 8.67826 35.5005 7.36316 35.0573 6.22387C34.614 5.02833 34.002 4.02266 32.9959 3.02403C31.9969 2.0254 30.9908 1.40652 29.8089 0.949404C28.6621 0.506349 27.3535 0.196913 25.4399 0.112522C23.5122 0.0210979 22.9001 0 18.0106 0Z" fill="#F0F0F0"/>
<path d="M18.0098 8.75562C12.9021 8.75562 8.7583 12.8978 8.7583 18.0035C8.7583 23.1092 12.9021 27.2514 18.0098 27.2514C23.1175 27.2514 27.2613 23.1092 27.2613 18.0035C27.2613 12.8978 23.1175 8.75562 18.0098 8.75562ZM18.0098 24.0023C14.6962 24.0023 12.0086 21.3159 12.0086 18.0035C12.0086 14.6911 14.6962 12.0047 18.0098 12.0047C21.3235 12.0047 24.011 14.6911 24.011 18.0035C24.011 21.3159 21.3235 24.0023 18.0098 24.0023Z" fill="#F0F0F0"/>
<path d="M29.786 8.38998C29.786 9.58552 28.8151 10.549 27.6262 10.549C26.4302 10.549 25.4663 9.57849 25.4663 8.38998C25.4663 7.19443 26.4372 6.23096 27.6262 6.23096C28.8151 6.23096 29.786 7.20146 29.786 8.38998Z" fill="#F0F0F0"/>
</svg>
