<svg width="23" height="23" viewBox="0 0 23 23" fill="none" xmlns="http://www.w3.org/2000/svg">
<path d="M16.543 17.647C17.4648 18.0469 18.3291 18.5525 19.1221 19.1584C20.1669 18.093 20.9406 16.8485 21.4141 15.4983H17.3123C17.1215 16.2286 16.8654 16.946 16.543 17.647Z" fill="white"/>
<path d="M12.0723 17.7098V21.6228C13.2358 20.6707 14.2178 19.5196 14.9627 18.234C14.0197 17.9351 13.052 17.7589 12.0723 17.7098Z" fill="white"/>
<path d="M13.1123 22.207C15.0202 21.9234 16.8042 21.1373 18.282 19.9247C17.5887 19.4104 16.8384 18.9773 16.0394 18.6336C15.2823 19.9756 14.2889 21.1869 13.1123 22.207Z" fill="white"/>
<path d="M15.7303 5.4114C16.475 5.11765 17.1775 4.74957 17.8314 4.3145C16.4484 3.30213 14.8263 2.63742 13.1172 2.37946C14.1392 3.2637 15.0247 4.28995 15.7303 5.4114Z" fill="white"/>
<path d="M12.0723 16.609C13.2291 16.6614 14.3708 16.8737 15.4793 17.241C15.7436 16.671 15.9598 16.0895 16.1292 15.4983H12.0723V16.609Z" fill="white"/>
<path d="M15.204 6.76318C14.176 7.07827 13.1266 7.26146 12.0723 7.3102V9.08799H16.1325C15.906 8.28644 15.5958 7.50646 15.204 6.76318Z" fill="white"/>
<path d="M18.7287 5.05194C17.9723 5.58233 17.152 6.02565 16.2812 6.37928C16.727 7.24449 17.072 8.15386 17.3131 9.08812H21.4047C20.8687 7.57128 19.9574 6.18291 18.7287 5.05194Z" fill="white"/>
<path d="M12.0723 2.96021V6.20963C12.9303 6.1657 13.7851 6.02244 14.6262 5.78294C13.9348 4.72996 13.0683 3.77334 12.0723 2.96021Z" fill="white"/>
<path d="M3.87803 19.1584C4.67058 18.5527 5.5348 18.0472 6.45685 17.6471C6.13441 16.9461 5.87827 16.2287 5.6876 15.4983H1.58594C2.05939 16.8482 2.83317 18.0928 3.87803 19.1584Z" fill="white"/>
<path d="M6.71819 6.37928C5.84739 6.02565 5.02713 5.58233 4.27079 5.05194C3.04195 6.18291 2.13078 7.57128 1.59473 9.08812H5.68635C5.92744 8.15374 6.27246 7.24438 6.71819 6.37928Z" fill="white"/>
<path d="M10.9283 6.20962V2.96008C9.93259 3.77298 9.06598 4.72961 8.37402 5.78293C9.21531 6.02243 10.0702 6.16581 10.9283 6.20962Z" fill="white"/>
<path d="M10.9279 21.623V17.7098C9.94787 17.7589 8.97994 17.9351 8.03711 18.234C8.78199 19.5198 9.76413 20.671 10.9279 21.623Z" fill="white"/>
<path d="M7.52014 17.241C8.62867 16.8737 9.77054 16.6614 10.9276 16.609V15.4983H6.87012C7.03964 16.0894 7.25588 16.671 7.52014 17.241Z" fill="white"/>
<path d="M6.96017 18.6335C6.16094 18.9772 5.41068 19.4104 4.71777 19.9245C6.19546 21.1372 7.97946 21.9233 9.88747 22.2068C8.7106 21.1869 7.71723 19.9757 6.96017 18.6335Z" fill="white"/>
<path d="M10.9278 7.3102C9.87322 7.26146 8.8237 7.07827 7.79568 6.76318C7.40371 7.50646 7.09358 8.28633 6.86719 9.08799H10.9279L10.9278 7.3102Z" fill="white"/>
<path d="M9.8825 2.37933C8.17328 2.63719 6.55092 3.30189 5.16797 4.31438C5.82181 4.74944 6.5244 5.11764 7.26915 5.4114C7.97509 4.28972 8.86057 3.26347 9.8825 2.37933Z" fill="white"/>
<path d="M4.936 14L4.04 11.2H5.012L5.736 13.564H5.248L6.016 11.2H6.884L7.6 13.564H7.132L7.888 11.2H8.784L7.888 14H6.876L6.292 12.064H6.564L5.948 14H4.936ZM9.76022 14L8.86422 11.2H9.83622L10.5602 13.564H10.0722L10.8402 11.2H11.7082L12.4242 13.564H11.9562L12.7122 11.2H13.6082L12.7122 14H11.7002L11.1162 12.064H11.3882L10.7722 14H9.76022ZM14.5844 14L13.6884 11.2H14.6604L15.3844 13.564H14.8964L15.6644 11.2H16.5324L17.2484 13.564H16.7804L17.5364 11.2H18.4324L17.5364 14H16.5244L15.9404 12.064H16.2124L15.5964 14H14.5844Z" fill="white"/>
</svg>
