<svg width="26" height="17" viewBox="0 0 26 17" fill="none" xmlns="http://www.w3.org/2000/svg">
<path d="M18.3086 3.01619C18.2106 3.05423 18.127 3.08702 18.0431 3.1192C17.0775 3.48967 16.1118 3.86008 15.1461 4.23038C14.9389 4.30986 14.7314 4.38879 14.5241 4.46814C14.4991 4.47773 14.479 4.48433 14.4511 4.46449C14.1873 4.27692 13.8934 4.15285 13.5816 4.07347C12.9513 3.913 12.3248 3.92562 11.7065 4.13597C11.4084 4.2374 11.1333 4.38206 10.8942 4.59026C10.6634 4.79125 10.4789 5.02676 10.3945 5.3241C10.2401 5.86745 10.3627 6.34632 10.7545 6.75433C10.943 6.95058 11.1683 7.09465 11.413 7.20979C11.8049 7.39422 12.2199 7.48856 12.6508 7.4993C13.2544 7.51435 13.8231 7.38035 14.3401 7.05883C14.5836 6.90734 14.7909 6.71619 14.9379 6.4668C15.1049 6.18338 15.1658 5.87799 15.1167 5.55165C15.1099 5.50605 15.0873 5.45202 15.1038 5.41671C15.1208 5.38027 15.1844 5.3824 15.2269 5.36583C15.7928 5.14562 16.3588 4.92596 16.9251 4.70686C17.846 4.35048 18.7674 3.99502 19.688 3.6377C19.7555 3.61152 19.8147 3.61024 19.8841 3.63651C20.3946 3.82971 20.9064 4.01918 21.4182 4.20893C22.051 4.44358 22.6843 4.67696 23.3171 4.91167C23.8814 5.12096 24.4453 5.33135 25.0095 5.54113C25.0969 5.57366 25.1794 5.61288 25.2464 5.68149C25.43 5.86973 25.4438 6.19983 25.1573 6.37772C25.0992 6.41381 25.0356 6.4393 24.9717 6.46383C24.3319 6.70975 23.6924 6.95644 23.0518 7.20033C23.0083 7.2169 23.0073 7.24084 23.0073 7.27682C23.0072 8.3119 23.0064 9.34697 23.0058 10.382C23.0056 10.6505 23.0057 10.919 23.0057 11.1923C22.971 11.1873 22.9467 11.1633 22.9195 11.1469C22.6965 11.0132 22.4644 10.9989 22.2244 11.0934C22.1906 11.1067 22.1596 11.1272 22.127 11.1437C22.1104 11.1521 22.0969 11.1693 22.0699 11.1627C22.0699 9.9704 22.0699 8.77766 22.0699 7.58095C22.0302 7.57575 22.0006 7.59273 21.9704 7.60449C21.5818 7.75613 21.1937 7.90881 20.8049 8.05991C20.3092 8.25255 19.8131 8.44396 19.3172 8.63597C18.4846 8.95836 17.652 9.28079 16.8195 9.60325C16.1348 9.86844 15.4497 10.1327 14.7655 10.3993C14.2951 10.5825 13.8219 10.7587 13.3547 10.9503C13.159 11.0306 12.9634 11.031 12.763 10.9554C11.7043 10.5559 10.6447 10.1585 9.58461 9.76261C8.14293 9.22425 6.70075 8.68721 5.25827 8.15099C4.28901 7.79069 3.31903 7.43233 2.34905 7.07399C1.80915 6.87453 1.26841 6.67734 0.728492 6.47793C0.641742 6.44589 0.552952 6.41526 0.480977 6.35405C0.213082 6.12625 0.262662 5.81394 0.516122 5.63566C0.560352 5.60455 0.609827 5.58355 0.660037 5.56431C1.43418 5.2676 2.20855 4.97148 2.98242 4.67408C3.54916 4.45628 4.11506 4.2363 4.6817 4.01822C5.43266 3.72919 6.18435 3.44204 6.93505 3.15233C7.89504 2.78186 8.85438 2.40973 9.81395 2.03817C10.5552 1.75114 11.2965 1.4639 12.0377 1.17676C12.1514 1.13272 12.2656 1.08996 12.3787 1.04445C12.5736 0.96602 12.7656 0.96964 12.963 1.04312C13.9153 1.39757 14.8689 1.74829 15.822 2.10038C16.5968 2.38661 17.3716 2.67296 18.1465 2.9591C18.1944 2.97679 18.2428 2.99306 18.3086 3.01619Z" fill="white"/>
<path d="M6.46875 9.69277C6.48449 9.68576 6.49491 9.69254 6.50613 9.69727C7.65358 10.181 8.80074 10.6654 9.94872 11.1478C10.7687 11.4924 11.5899 11.8342 12.4104 12.1776C12.606 12.2595 12.8014 12.3419 12.9959 12.4261C13.0308 12.4413 13.0602 12.4394 13.0933 12.4246C13.5894 12.2018 14.0905 11.9903 14.5899 11.7751C15.2841 11.4759 15.9782 11.1763 16.6724 10.8768C17.3329 10.5918 17.9935 10.307 18.6538 10.0215C18.9202 9.90639 19.186 9.78985 19.4521 9.67424C19.472 9.66561 19.4929 9.65935 19.5121 9.6524C19.5286 9.66896 19.5218 9.68678 19.5218 9.70274C19.522 11.2039 19.5212 12.7052 19.5231 14.2064C19.5233 14.2865 19.5036 14.3412 19.444 14.4005C19.1822 14.6612 18.8835 14.8702 18.5648 15.0522C17.987 15.3822 17.3676 15.6103 16.7302 15.7923C16.1594 15.9553 15.5785 16.0715 14.9902 16.1507C14.62 16.2005 14.2485 16.2338 13.8756 16.2551C13.3388 16.2859 12.802 16.2885 12.2654 16.2635C11.8876 16.2459 11.5108 16.214 11.1352 16.167C10.3731 16.0715 9.62519 15.9116 8.89341 15.6789C8.36482 15.5107 7.8494 15.3093 7.36577 15.0346C7.05252 14.8566 6.76262 14.6471 6.51492 14.3824C6.47995 14.345 6.468 14.3085 6.46805 14.259C6.46938 12.9653 6.46955 11.6716 6.46952 10.3779C6.46952 10.1606 6.46765 9.94338 6.4668 9.72613C6.46675 9.71448 6.46813 9.70283 6.46875 9.69277Z" fill="white"/>
<path d="M23.9549 14.6541C23.9549 15.008 23.9547 15.3618 23.9551 15.7157C23.9552 15.7746 23.9486 15.8321 23.932 15.8889C23.8765 16.0789 23.6638 16.2034 23.5068 16.2078C23.4727 16.2088 23.4385 16.2091 23.4043 16.2091C22.7821 16.2094 22.1598 16.2093 21.5375 16.21C21.4588 16.2101 21.3817 16.2049 21.309 16.1707C21.1371 16.09 21.0401 15.9581 21.032 15.7657C21.0302 15.7243 21.0308 15.6828 21.0314 15.6413C21.0401 14.9971 21.0408 14.3528 21.0295 13.7087C21.0233 13.3527 21.1463 13.057 21.3866 12.8023C21.5451 12.6343 21.7364 12.5155 21.9452 12.4215C21.983 12.4045 22.0108 12.4086 22.0444 12.4346C22.1897 12.5471 22.3549 12.6087 22.5398 12.6026C22.7072 12.5971 22.861 12.544 22.9953 12.4429C23.0321 12.4152 23.0596 12.4159 23.0996 12.4335C23.3195 12.5306 23.5137 12.6618 23.6656 12.8504C23.8537 13.084 23.9604 13.3462 23.9567 13.6512C23.9527 13.9855 23.9558 14.3198 23.9558 14.6542C23.9555 14.6541 23.9552 14.6541 23.9549 14.6541Z" fill="white"/>
<path d="M13.8809 5.87564C13.8327 6.04413 13.7225 6.15275 13.582 6.23539C13.2907 6.40674 12.974 6.4647 12.6401 6.44588C12.4461 6.43495 12.2591 6.39337 12.0792 6.31985C11.9813 6.27988 11.8916 6.22609 11.8093 6.16052C11.728 6.09571 11.6646 6.01552 11.6238 5.91945C11.5489 5.74306 11.5841 5.57945 11.692 5.42961C11.7885 5.29564 11.9207 5.20378 12.0716 5.14058C12.3323 5.03136 12.604 4.99003 12.8866 5.00986C13.0637 5.02228 13.2322 5.06563 13.3978 5.12539C13.4675 5.15057 13.4679 5.15112 13.4456 5.22047C13.41 5.33071 13.407 5.43979 13.449 5.54966C13.5084 5.70488 13.6226 5.79883 13.777 5.84888C13.8092 5.85933 13.8427 5.86593 13.8809 5.87564Z" fill="white"/>
</svg>
