<svg width="34" height="35" viewBox="0 0 34 35" fill="none" xmlns="http://www.w3.org/2000/svg">
<g clip-path="url(#clip0_1_149)">
<g clip-path="url(#clip1_1_149)">
<g clip-path="url(#clip2_1_149)">
<mask id="mask0_1_149" style="mask-type:luminance" maskUnits="userSpaceOnUse" x="0" y="0" width="34" height="35">
<path d="M34 0.359985H0V34.36H34V0.359985Z" fill="white"/>
</mask>
<g mask="url(#mask0_1_149)">
<path d="M5.04688 26.3248C7.24425 26.3248 9.03125 24.5378 9.03125 22.3405C9.03125 20.1431 7.24425 18.3561 5.04688 18.3561C2.8495 18.3561 1.0625 20.1431 1.0625 22.3405C1.0625 24.5378 2.8495 26.3248 5.04688 26.3248Z" fill="white"/>
<path d="M11.0234 22.3405C11.0234 24.5378 12.8104 26.3248 15.0078 26.3248C17.2052 26.3248 18.9922 24.5378 18.9922 22.3405C18.9922 20.1431 17.2052 18.3561 15.0078 18.3561C12.8104 18.3561 11.0234 20.1431 11.0234 22.3405Z" fill="white"/>
<path d="M24.9688 26.3248C27.1661 26.3248 28.9531 24.5378 28.9531 22.3405C28.9531 20.1431 27.1661 18.3561 24.9688 18.3561C22.7714 18.3561 20.9844 20.1431 20.9844 22.3405C20.9844 24.5378 22.7714 26.3248 24.9688 26.3248Z" fill="white"/>
<path d="M24.9688 27.3209C22.2227 27.3209 19.9883 29.5554 19.9883 32.3014C19.9883 29.5554 17.7538 27.3209 15.0078 27.3209C12.2618 27.3209 10.0273 29.5554 10.0273 32.3014C10.0273 29.5554 7.79288 27.3209 5.04688 27.3209C2.30087 27.3209 0 29.5554 0 32.3014V34.36H29.9492V32.3014C29.9492 29.5554 27.7148 27.3209 24.9688 27.3209Z" fill="white"/>
<path d="M8.03516 8.32874C10.2325 8.32874 12.0195 6.54174 12.0195 4.34437C12.0195 2.14699 10.2325 0.359985 8.03516 0.359985C5.83778 0.359985 4.05078 2.14699 4.05078 4.34437C4.05078 6.54174 5.83778 8.32874 8.03516 8.32874Z" fill="white"/>
<path d="M16.0703 0.359985V16.2975H34V0.359985H16.0703ZM28.0234 10.3209H20.0547V8.32874H28.0234V10.3209ZM30.0156 6.33655H20.0547V4.34437H30.0156V6.33655Z" fill="white"/>
<path d="M10.0273 19.0489C10.735 17.9818 11.7926 17.1906 13.0156 16.7509V14.3717C13.0156 11.6257 10.7812 9.39124 8.03516 9.39124C5.28915 9.39124 3.05469 11.6257 3.05469 14.3717V16.731C3.68088 16.5076 4.34494 16.3639 5.04688 16.3639C7.12596 16.3639 8.95628 17.4337 10.0273 19.0489Z" fill="white"/>
</g>
</g>
</g>
</g>
<defs>
<clipPath id="clip0_1_149">
<rect width="34" height="34" fill="white" transform="translate(0 0.359985)"/>
</clipPath>
<clipPath id="clip1_1_149">
<rect width="34" height="34" fill="white" transform="translate(0 0.359985)"/>
</clipPath>
<clipPath id="clip2_1_149">
<rect width="34" height="34" fill="white" transform="translate(0 0.359985)"/>
</clipPath>
</defs>
</svg>
