<svg width="62" height="62" viewBox="0 0 62 62" fill="none" xmlns="http://www.w3.org/2000/svg">
<path fill-rule="evenodd" clip-rule="evenodd" d="M30.9997 62C48.1209 62 62 48.1209 62 30.9998C62 13.8792 48.1209 0 30.9997 0C13.8791 0 0 13.8792 0 30.9997C0 48.1209 13.8791 62 30.9997 62ZM28.5681 13.9285C26.7408 12.2955 23.9752 12.4993 22.3914 14.3836C20.8078 16.2679 21.0053 19.1192 22.8328 20.7521L34.0095 30.739L22.6822 41.8525C20.9298 43.5717 20.8614 46.4293 22.5283 48.2354C24.1955 50.0419 26.9669 50.1127 28.7187 48.3941L43.0021 34.3805C45.1625 32.2609 45.0817 28.6836 42.8282 26.67L28.5681 13.9285Z" fill="white"/>
</svg>
