<svg width="34" height="26" viewBox="0 0 34 26" fill="none" xmlns="http://www.w3.org/2000/svg">
<g clip-path="url(#clip0_1_178)">
<g clip-path="url(#clip1_1_178)">
<g clip-path="url(#clip2_1_178)">
<path d="M17.0822 25.5795C19.2753 25.5795 21.053 23.8017 21.053 21.6087C21.053 19.4156 19.2753 17.6377 17.0822 17.6377C14.8891 17.6377 13.1113 19.4156 13.1113 21.6087C13.1113 23.8017 14.8891 25.5795 17.0822 25.5795Z" fill="white"/>
<path d="M26.5697 12.0411C26.5107 11.9806 26.4485 11.9266 26.388 11.8709L26.2096 11.7024C26.1801 11.6713 26.1474 11.6483 26.1098 11.6188C20.9751 6.95396 13.1167 7.13891 8.21617 12.0395L7.64165 12.6157L6.84616 13.4111C5.87717 14.3802 5.88208 15.9597 6.85271 16.9304C7.82498 17.9042 9.40449 17.9059 10.3719 16.9368L11.7435 15.5652C14.86 12.4504 19.9292 12.4504 23.044 15.5635L24.0343 16.5228C24.9935 17.4819 26.5582 17.4803 27.5223 16.5145C27.9888 16.0497 28.2458 15.4293 28.2474 14.7697C28.2491 14.1134 27.9954 13.493 27.5289 13.0297L26.5697 12.0411Z" fill="white"/>
<path d="M33.3355 7.13269L32.5104 6.30773C32.5073 6.30446 32.5056 6.29955 32.499 6.29791L31.8475 5.64319C31.733 5.53025 31.6086 5.43204 31.4777 5.34692C23.1086 -2.0007 10.3791 -1.77483 2.27699 6.01966C2.23771 6.05567 2.19351 6.08021 2.15422 6.1195L0.664733 7.61064C-0.219144 8.49287 -0.214233 9.92835 0.674554 10.8172C1.56171 11.7043 2.99719 11.7108 3.88106 10.8253L5.37055 9.33746C5.38038 9.32437 5.38856 9.31292 5.39839 9.30473C11.9505 2.97519 22.3442 2.93591 28.9488 9.17542L30.1207 10.349C31.0029 11.2312 32.4417 11.228 33.3289 10.3408C34.2144 9.45204 34.2177 8.01492 33.3355 7.13269Z" fill="white"/>
</g>
</g>
</g>
<defs>
<clipPath id="clip0_1_178">
<rect width="34" height="25.75" fill="white"/>
</clipPath>
<clipPath id="clip1_1_178">
<rect width="34" height="25.75" fill="white"/>
</clipPath>
<clipPath id="clip2_1_178">
<rect width="33.99" height="25.75" fill="white" transform="translate(0.00488281)"/>
</clipPath>
</defs>
</svg>
