<svg width="21" height="21" viewBox="0 0 21 21" fill="none" xmlns="http://www.w3.org/2000/svg">
<path d="M17.7778 1H3.22222C1.99492 1 1 1.99492 1 3.22222V17.7778C1 19.0051 1.99492 20 3.22222 20H17.7778C19.0051 20 20 19.0051 20 17.7778V3.22222C20 1.99492 19.0051 1 17.7778 1Z" fill="white" stroke="white"/>
<g clip-path="url(#clip0_137_226)">
<path d="M13.8628 9.73581L9.24163 5.37515C9.01843 5.16453 8.66969 5.16453 8.44649 5.37515C8.2042 5.60378 8.2042 5.98916 8.44649 6.21779L12.2462 9.80332C12.6651 10.1986 12.6644 10.8652 12.2446 11.2595L8.44797 14.8258C8.20404 15.0549 8.20103 15.4414 8.44136 15.6743C8.66661 15.8926 9.02378 15.895 9.25193 15.6797L13.9361 11.2596C14.3543 10.8649 14.3543 10.1997 13.9361 9.80498L13.8628 9.73581Z" fill="#791221"/>
</g>
<defs>
<clipPath id="clip0_137_226">
<rect width="12" height="11" fill="white" transform="matrix(1 0 0 -1 5 16)"/>
</clipPath>
</defs>
</svg>
