<svg width="25" height="25" viewBox="0 0 25 25" fill="none" xmlns="http://www.w3.org/2000/svg">
<path fill-rule="evenodd" clip-rule="evenodd" d="M0.413687 25C0.185147 25 0 24.8148 0 24.5862V19.5412C0 18.3833 0.743479 17.3816 1.85089 17.0465L7.10558 15.2925L9.41702 19.731C9.49166 19.8555 9.62647 19.9318 9.77169 19.9318C9.91692 19.9318 10.0517 19.8555 10.1264 19.731L12.4378 15.2925L17.6925 17.0465C18.7999 17.3816 19.5434 18.3833 19.5434 19.5412V24.5862C19.5434 24.8148 19.3582 25 19.1297 25H0.413687Z" fill="white"/>
<path fill-rule="evenodd" clip-rule="evenodd" d="M10.5625 25H8.9818L6.3047 20.5198C6.21675 20.3815 6.21849 20.2044 6.30932 20.0684L6.87171 19.2247L5.62544 18.2901C5.44955 18.1582 5.40789 17.9122 5.52939 17.7293L7.08289 15.3984C7.0962 15.377 7.11182 15.3573 7.12918 15.3382L9.41689 19.731C9.49153 19.8555 9.62634 19.9318 9.77157 19.9318C9.91679 19.9318 10.0516 19.8555 10.1262 19.731L12.414 15.3388C12.4284 15.3544 12.4423 15.3718 12.4545 15.3903L14.0137 17.7293C14.1352 17.9122 14.0936 18.1582 13.9177 18.2901L12.6714 19.2247L13.2338 20.0684C13.3246 20.205 13.3264 20.3821 13.2384 20.5198L10.5625 25Z" fill="#7E7E7E"/>
<path fill-rule="evenodd" clip-rule="evenodd" d="M7.10645 15.2924L7.78802 13.234C7.85976 13.017 8.09409 12.8996 8.31048 12.9713C9.2258 13.2746 10.4472 13.2323 11.2352 12.9713C11.4522 12.8996 11.6859 13.017 11.7577 13.234L12.4392 15.2924L10.1278 19.731C10.0532 19.8554 9.91836 19.9318 9.77313 19.9318C9.62791 19.9318 9.4931 19.8554 9.41846 19.731L7.10645 15.2924Z" fill="white"/>
<path fill-rule="evenodd" clip-rule="evenodd" d="M7.53809 13.9875L7.78746 13.234C7.8592 13.017 8.09353 12.8996 8.30992 12.9713C9.22523 13.2746 10.4466 13.2323 11.2347 12.9713C11.4516 12.8996 11.6854 13.017 11.7571 13.234L12.0065 13.9875C11.8977 14.0402 11.7866 14.0894 11.6732 14.1351C11.0669 14.3781 10.4252 14.5002 9.77257 14.5002C9.11935 14.5002 8.47771 14.3781 7.87135 14.1351C7.75795 14.0899 7.64686 14.0402 7.53809 13.9875Z" fill="#C6C6C6"/>
<path fill-rule="evenodd" clip-rule="evenodd" d="M11.8495 16.4232L11.3404 17.4006L10.1271 19.7304C10.0525 19.8549 9.91765 19.9313 9.77243 19.9313C9.6272 19.9313 9.49239 19.8549 9.41775 19.7304L7.69531 16.4232C7.79483 16.4082 7.90013 16.4169 7.99907 16.4533C8.5574 16.6599 9.15392 16.7647 9.77243 16.7647C10.3909 16.7647 10.9875 16.6599 11.5458 16.4533C11.6447 16.4169 11.7506 16.4082 11.8495 16.4232Z" fill="white"/>
<path fill-rule="evenodd" clip-rule="evenodd" d="M2.75611 13.6935C2.68032 13.6935 2.60394 13.6727 2.53625 13.6299C2.38061 13.5321 2.30829 13.3429 2.35862 13.1658C2.86546 11.3909 3.12235 9.55591 3.12235 7.71221V6.71686C3.12235 3.01382 6.10553 0.00057869 9.77201 0C11.5483 0 13.2186 0.692114 14.4747 1.94787C15.7308 3.20479 16.4228 4.87547 16.4228 6.65147V7.71163C16.4228 8.62827 16.4876 9.55476 16.6149 10.465C16.7428 11.3736 16.9349 12.2821 17.1866 13.1652C17.2357 13.3382 17.1675 13.5234 17.0176 13.6229C16.8678 13.7225 16.6705 13.7138 16.5299 13.6015L15.7465 12.9748C15.0701 12.4337 14.2213 12.1438 13.3546 12.1623C11.3903 12.204 8.3163 12.204 6.18884 12.1623C5.20467 12.145 4.25811 12.4957 3.52215 13.1496L3.0292 13.5876C2.95341 13.6582 2.85505 13.6935 2.75611 13.6935Z" fill="#747474"/>
<path fill-rule="evenodd" clip-rule="evenodd" d="M9.77192 14.0627C9.17077 14.0622 8.5864 13.9499 8.03443 13.7282C7.14747 13.3735 6.3982 12.7636 5.86822 11.9644C5.35849 11.1953 5.08887 10.3001 5.08887 9.37476V6.29381C5.08887 5.19257 5.98451 4.29675 7.08556 4.29675H12.4589C13.5599 4.29675 14.4555 5.19257 14.4555 6.29381V9.37476C14.4555 10.3001 14.1859 11.1953 13.6762 11.9644C13.1456 12.7636 12.3964 13.3735 11.5094 13.7282C10.9569 13.9499 10.3731 14.0622 9.77192 14.0627Z" fill="white"/>
<path fill-rule="evenodd" clip-rule="evenodd" d="M17.5798 25H23.8285H24.6095C24.8253 25 25.0001 24.8252 25.0001 24.6094C25.0001 24.3935 24.8253 24.2188 24.6095 24.2188H24.219V22.6563H24.6095C24.8253 22.6563 25.0001 22.4815 25.0001 22.2657C25.0001 22.0498 24.8253 21.8751 24.6095 21.8751H17.5798C16.7182 21.8751 16.0176 22.5759 16.0176 23.4375C16.0176 24.2992 16.7182 25 17.5798 25Z" fill="#818181"/>
<path fill-rule="evenodd" clip-rule="evenodd" d="M23.4381 24.2187H17.5799C17.1494 24.2187 16.7988 23.868 16.7988 23.4375C16.7988 23.0069 17.1494 22.6562 17.5799 22.6562H23.4381V24.2187Z" fill="white"/>
<path fill-rule="evenodd" clip-rule="evenodd" d="M23.4379 22.6563H17.1892H16.4081C16.1923 22.6563 16.0176 22.4815 16.0176 22.2657C16.0176 22.0498 16.1923 21.8751 16.4081 21.8751H16.7987V20.3126H16.4081C16.1923 20.3126 16.0176 20.1378 16.0176 19.922C16.0176 19.7061 16.1923 19.5314 16.4081 19.5314H23.4379C24.2994 19.5314 25.0001 20.2322 25.0001 21.0938C25.0001 21.9555 24.2994 22.6563 23.4379 22.6563Z" fill="#BCBCBC"/>
<path fill-rule="evenodd" clip-rule="evenodd" d="M17.5801 21.8751H23.4382C23.8687 21.8751 24.2193 21.5244 24.2193 21.0939C24.2193 20.6633 23.8687 20.3126 23.4382 20.3126H17.5801V21.8751Z" fill="white"/>
</svg>
