<svg width="25" height="25" viewBox="0 0 25 25" fill="none" xmlns="http://www.w3.org/2000/svg">
<path fill-rule="evenodd" clip-rule="evenodd" d="M22.9514 6.15718L18.1551 7.06588C18.1383 7.06941 18.1215 7.07117 18.1046 7.07117C18.0335 7.07117 17.9639 7.04294 17.9073 6.99089L14.1421 3.43018L13.4629 6.35568C13.7367 6.6724 14.0365 6.96707 14.357 7.2388L14.3684 7.24851C16.5452 9.08621 19.6878 9.85199 22.2493 9.06856L22.9514 6.15718Z" fill="white"/>
<path fill-rule="evenodd" clip-rule="evenodd" d="M12.8594 1.28983L18.1941 6.33271L24.9995 5.04199L19.6656 0L12.8594 1.28983Z" fill="white"/>
<path fill-rule="evenodd" clip-rule="evenodd" d="M14.0822 7.8916H3.05332C2.87129 7.8916 2.7168 8.07246 2.7168 8.28684V21.4746H8.7123H13.8267H19.8222V10.084C19.0191 10.0557 18.197 9.91634 17.3878 9.66578C16.1679 9.28819 15.0336 8.67591 14.0822 7.8916ZM8.84615 11.8476H18.1358C18.3079 11.8476 18.4463 12.0081 18.4463 12.2057C18.4463 12.4034 18.3071 12.5639 18.1358 12.5639H8.84615C8.67406 12.5639 8.53562 12.4034 8.53562 12.2057C8.53562 12.0081 8.67482 11.8476 8.84615 11.8476ZM8.84615 16.804H18.1358C18.3079 16.804 18.4463 16.9645 18.4463 17.1622C18.4463 17.3598 18.3071 17.5204 18.1358 17.5204H8.84615C8.67406 17.5204 8.53562 17.3598 8.53562 17.1622C8.53562 16.9637 8.67482 16.804 8.84615 16.804ZM7.78838 15.5009C7.90923 15.6403 7.90923 15.8679 7.78838 16.0073L5.34705 18.8234C5.28586 18.8931 5.20708 18.9275 5.12754 18.9275C5.048 18.9275 4.96846 18.8931 4.90804 18.8234L4.1868 17.9915C4.06596 17.8521 4.06596 17.6245 4.1868 17.4851C4.30764 17.3457 4.5042 17.3457 4.62581 17.4851L5.12754 18.0638L7.34937 15.5009C7.47022 15.3598 7.66601 15.3598 7.78838 15.5009ZM7.78838 11.0509L5.34705 13.867C5.28892 13.9341 5.20938 13.972 5.12754 13.972C5.04494 13.972 4.96616 13.9341 4.90804 13.867L4.1868 13.0351C4.06596 12.8957 4.06596 12.668 4.1868 12.5286C4.30764 12.3893 4.5042 12.3893 4.62581 12.5286L5.12754 13.1074L7.34937 10.5445C7.47022 10.4051 7.66754 10.4051 7.78838 10.5445C7.90923 10.6839 7.90923 10.9106 7.78838 11.0509Z" fill="white"/>
<path fill-rule="evenodd" clip-rule="evenodd" d="M12.8078 6.43506H2.86501C2.01681 6.43506 1.32617 7.23172 1.32617 8.21101V21.4755H2.09712V8.28776C2.09712 7.6746 2.52619 7.17614 3.05392 7.17614H13.3103C13.165 7.02351 13.025 6.86736 12.8935 6.70591C12.8323 6.6318 12.8024 6.53387 12.8078 6.43506Z" fill="white"/>
<path fill-rule="evenodd" clip-rule="evenodd" d="M20.1349 22.1919H14.1394V22.7151C14.1394 23.3988 13.6576 23.9546 13.0648 23.9546H9.47777C8.88503 23.9546 8.40319 23.3988 8.40319 22.7151V22.1919H2.40692H1.01569H0V23.5964C0 24.371 0.546089 25.0001 1.21761 25.0001H21.325C21.9965 25.0001 22.5426 24.371 22.5426 23.5964V22.1919H21.5269H20.1349Z" fill="white"/>
<path fill-rule="evenodd" clip-rule="evenodd" d="M20.4443 10.084V21.4754H21.2153V10.0187C20.9614 10.0522 20.7044 10.0743 20.4443 10.084Z" fill="white"/>
<path fill-rule="evenodd" clip-rule="evenodd" d="M13.5176 22.1919H9.02344V22.7151C9.02344 23.0027 9.22688 23.2382 9.47698 23.2382H13.064C13.3141 23.2382 13.5176 23.0036 13.5176 22.7151V22.1919Z" fill="white"/>
<path fill-rule="evenodd" clip-rule="evenodd" d="M24.2172 8.31067C23.7866 8.31067 23.4355 8.71562 23.4355 9.21408C23.4355 9.71255 23.7866 10.1157 24.2172 10.1157C24.6486 10.1157 25.0004 9.71166 25.0004 9.21408C24.9996 8.71562 24.6486 8.31067 24.2172 8.31067Z" fill="white"/>
<path fill-rule="evenodd" clip-rule="evenodd" d="M24.7814 6.14209V7.63837C24.6071 7.55455 24.4166 7.50868 24.217 7.50868C24.0174 7.50868 23.8269 7.55455 23.6533 7.63837V6.35559L24.7814 6.14209Z" fill="white"/>
</svg>
