<svg width="36" height="36" viewBox="0 0 36 36" fill="none" xmlns="http://www.w3.org/2000/svg">
<path d="M13.0494 36C10.1183 36 7.35387 35.164 5.05504 33.582C4.62563 33.2866 4.21274 32.9639 3.82737 32.6236C1.14396 30.2527 -0.206395 27.0949 0.0256117 23.7319C0.200993 21.1901 1.34608 18.7397 3.25168 16.8321C5.77544 14.3058 9.25475 12.9143 13.0502 12.9143C13.7022 12.9143 14.3605 12.9579 15.0085 13.0437L16.0152 13.1773V21.1641L14.4651 20.7063C14.0136 20.5727 13.5441 20.5052 13.0691 20.5052C11.869 20.5052 10.7451 20.9257 9.90437 21.6886C9.06758 22.448 8.61693 23.452 8.63424 24.5173C8.65704 25.8905 9.46631 27.135 10.7986 27.848C11.412 28.1756 12.1104 28.3676 12.8198 28.4027C13.3798 28.4302 13.9326 28.3648 14.4643 28.208C16.2818 27.6715 17.5032 26.164 17.5032 24.4575L17.511 16.1747V0H26.0489L26.0591 1.04484C26.0638 1.51805 26.1181 1.99125 26.2203 2.44969C26.6214 4.2525 27.7524 5.85914 29.4047 6.97289C30.8715 7.96219 32.6221 8.48461 34.4656 8.48461C34.5089 8.48461 34.5089 8.48461 34.9029 8.50922L36 8.57812V15.0469V16.1016L35.6068 16.1009H34.8227C34.8164 16.1009 34.8101 16.1009 34.803 16.1009H34.4263C34.4247 16.1009 34.4224 16.1009 34.42 16.1009C32.1463 16.1009 30.0158 15.7134 27.9042 14.9168C27.275 14.6791 26.6623 14.4077 26.0709 14.1047L26.0976 24.4976C26.0835 27.5716 24.7245 30.4552 22.2715 32.6229C20.281 34.3814 17.769 35.505 15.0069 35.8706C14.3628 35.9564 13.7046 36 13.0494 36ZM13.0494 15.0237C9.93583 15.0237 7.08097 16.1648 5.011 18.237C3.45695 19.793 2.52263 21.7905 2.3795 23.8612C2.19074 26.607 3.29337 29.186 5.48524 31.1224C5.80218 31.4023 6.14115 31.6673 6.49348 31.9099C8.37628 33.2058 10.6436 33.8906 13.0494 33.8906C13.589 33.8906 14.1308 33.8548 14.6617 33.7845C16.9243 33.4849 18.9825 32.5645 20.6136 31.1231C22.6175 29.3527 23.7272 26.9993 23.739 24.4962L23.7021 9.98438L25.6077 11.2985C26.5915 11.977 27.6737 12.5409 28.8227 12.9748C30.3933 13.5675 31.9765 13.8966 33.6398 13.9746V10.568C31.584 10.4302 29.6422 9.77695 27.9836 8.65828C25.868 7.23234 24.4201 5.17359 23.9058 2.86242C23.8507 2.61422 23.8059 2.3632 23.7729 2.11008H19.8696V16.1754L19.8618 24.4582C19.8618 27.0759 17.99 29.3878 15.2036 30.2105C14.3911 30.4502 13.5457 30.5501 12.69 30.5086C11.6 30.4552 10.5273 30.1605 9.58664 29.6578C7.54734 28.5673 6.30866 26.6569 6.27406 24.5482C6.24732 22.9141 6.93862 21.3729 8.22213 20.2078C9.50957 19.0392 11.2303 18.3959 13.0675 18.3959C13.2641 18.3959 13.4592 18.4036 13.6542 18.4184V15.0384C13.4529 15.0286 13.2508 15.0237 13.0494 15.0237Z" fill="white"/>
</svg>
